<mxfile host="app.diagrams.net" modified="2021-04-04T13:47:43.508Z" agent="5.0 (Windows NT 10.0; Win64; x64) AppleWebKit/537.36 (KHTML, like Gecko) Chrome/88.0.4324.192 Safari/537.36 OPR/74.0.3911.232" etag="eFaXIvWpDmXdLSG18ANp" version="14.5.7" type="github">
  <diagram id="3otDZdopz5Ghpj3UKXR2" name="Page-1">
    <mxGraphModel dx="1483" dy="783" grid="1" gridSize="10" guides="1" tooltips="1" connect="1" arrows="1" fold="1" page="1" pageScale="1" pageWidth="850" pageHeight="1100" math="0" shadow="0">
      <root>
        <mxCell id="0" />
        <mxCell id="1" parent="0" />
        <mxCell id="HuJY_5AUr9-cLWtEceim-1" value="&lt;font style=&quot;font-size: 18px&quot;&gt;Khách hàng&lt;/font&gt;" style="shape=umlActor;verticalLabelPosition=bottom;verticalAlign=top;html=1;" vertex="1" parent="1">
          <mxGeometry x="70" y="290" width="40" height="80" as="geometry" />
        </mxCell>
        <mxCell id="HuJY_5AUr9-cLWtEceim-5" value="" style="rounded=1;arcSize=10;dashed=1;strokeColor=#000000;fillColor=none;gradientColor=none;dashPattern=8 3 1 3;strokeWidth=2;" vertex="1" parent="1">
          <mxGeometry x="160" y="200" width="770" height="610" as="geometry" />
        </mxCell>
        <mxCell id="HuJY_5AUr9-cLWtEceim-6" value="&lt;font style=&quot;font-size: 20px&quot;&gt;Hệ thống quán cà phê&lt;/font&gt;" style="text;html=1;strokeColor=none;fillColor=none;align=center;verticalAlign=middle;whiteSpace=wrap;rounded=0;" vertex="1" parent="1">
          <mxGeometry x="450" y="220" width="245" height="20" as="geometry" />
        </mxCell>
        <mxCell id="HuJY_5AUr9-cLWtEceim-7" value="&lt;font style=&quot;font-size: 18px&quot;&gt;Xem menu&lt;/font&gt;" style="ellipse;whiteSpace=wrap;html=1;" vertex="1" parent="1">
          <mxGeometry x="250" y="230" width="120" height="80" as="geometry" />
        </mxCell>
        <mxCell id="HuJY_5AUr9-cLWtEceim-8" value="&lt;span style=&quot;font-size: 18px&quot;&gt;Đặt nước&lt;/span&gt;" style="ellipse;whiteSpace=wrap;html=1;" vertex="1" parent="1">
          <mxGeometry x="280" y="340" width="120" height="80" as="geometry" />
        </mxCell>
        <mxCell id="HuJY_5AUr9-cLWtEceim-9" value="&lt;font style=&quot;font-size: 18px&quot;&gt;Phục vụ nước&lt;/font&gt;" style="ellipse;whiteSpace=wrap;html=1;" vertex="1" parent="1">
          <mxGeometry x="270" y="700" width="120" height="80" as="geometry" />
        </mxCell>
        <mxCell id="HuJY_5AUr9-cLWtEceim-10" value="&lt;font style=&quot;font-size: 18px&quot;&gt;&lt;br&gt;Đặt nước online&lt;br&gt;&lt;br&gt;&lt;/font&gt;" style="ellipse;whiteSpace=wrap;html=1;" vertex="1" parent="1">
          <mxGeometry x="410" y="280" width="120" height="70" as="geometry" />
        </mxCell>
        <mxCell id="HuJY_5AUr9-cLWtEceim-11" value="Extends" style="endArrow=block;endSize=16;endFill=0;html=1;exitX=0;exitY=1;exitDx=0;exitDy=0;entryX=0.923;entryY=0.21;entryDx=0;entryDy=0;entryPerimeter=0;" edge="1" parent="1" source="HuJY_5AUr9-cLWtEceim-10" target="HuJY_5AUr9-cLWtEceim-8">
          <mxGeometry width="160" relative="1" as="geometry">
            <mxPoint x="280" y="390" as="sourcePoint" />
            <mxPoint x="440" y="390" as="targetPoint" />
          </mxGeometry>
        </mxCell>
        <mxCell id="HuJY_5AUr9-cLWtEceim-16" value="&lt;span style=&quot;font-size: 18px&quot;&gt;Nhân viên&lt;/span&gt;" style="shape=umlActor;verticalLabelPosition=bottom;verticalAlign=top;html=1;" vertex="1" parent="1">
          <mxGeometry x="70" y="610" width="40" height="80" as="geometry" />
        </mxCell>
        <mxCell id="HuJY_5AUr9-cLWtEceim-20" value="&lt;font style=&quot;font-size: 18px&quot;&gt;Thanh toán&lt;/font&gt;" style="ellipse;whiteSpace=wrap;html=1;" vertex="1" parent="1">
          <mxGeometry x="380" y="470" width="120" height="80" as="geometry" />
        </mxCell>
        <mxCell id="HuJY_5AUr9-cLWtEceim-24" value="&lt;font style=&quot;font-size: 18px&quot;&gt;Thanh toán online&lt;br&gt;&lt;/font&gt;" style="ellipse;whiteSpace=wrap;html=1;" vertex="1" parent="1">
          <mxGeometry x="460" y="380" width="120" height="70" as="geometry" />
        </mxCell>
        <mxCell id="HuJY_5AUr9-cLWtEceim-25" value="Extends" style="endArrow=block;endSize=16;endFill=0;html=1;exitX=0.29;exitY=0.994;exitDx=0;exitDy=0;exitPerimeter=0;" edge="1" parent="1" source="HuJY_5AUr9-cLWtEceim-24" target="HuJY_5AUr9-cLWtEceim-20">
          <mxGeometry width="160" relative="1" as="geometry">
            <mxPoint x="310" y="480" as="sourcePoint" />
            <mxPoint x="470" y="480" as="targetPoint" />
          </mxGeometry>
        </mxCell>
        <mxCell id="HuJY_5AUr9-cLWtEceim-28" value="&lt;font style=&quot;font-size: 18px&quot;&gt;Kiểm tra thành viên&lt;br&gt;&lt;/font&gt;" style="ellipse;whiteSpace=wrap;html=1;" vertex="1" parent="1">
          <mxGeometry x="560" y="460" width="130" height="70" as="geometry" />
        </mxCell>
        <mxCell id="HuJY_5AUr9-cLWtEceim-30" value="Include" style="html=1;verticalAlign=bottom;endArrow=block;entryX=0;entryY=0.5;entryDx=0;entryDy=0;exitX=0.95;exitY=0.3;exitDx=0;exitDy=0;exitPerimeter=0;" edge="1" parent="1" source="HuJY_5AUr9-cLWtEceim-20" target="HuJY_5AUr9-cLWtEceim-28">
          <mxGeometry width="80" relative="1" as="geometry">
            <mxPoint x="500" y="510" as="sourcePoint" />
            <mxPoint x="580" y="510" as="targetPoint" />
          </mxGeometry>
        </mxCell>
        <mxCell id="HuJY_5AUr9-cLWtEceim-33" value="&lt;font style=&quot;font-size: 18px&quot;&gt;Mua nguyên liệu&lt;/font&gt;" style="ellipse;whiteSpace=wrap;html=1;" vertex="1" parent="1">
          <mxGeometry x="750" y="350" width="120" height="80" as="geometry" />
        </mxCell>
        <mxCell id="HuJY_5AUr9-cLWtEceim-34" value="&lt;font style=&quot;font-size: 18px&quot;&gt;Nhà cung cấp&lt;/font&gt;" style="shape=umlActor;verticalLabelPosition=bottom;verticalAlign=top;html=1;" vertex="1" parent="1">
          <mxGeometry x="1020" y="340" width="40" height="80" as="geometry" />
        </mxCell>
        <mxCell id="HuJY_5AUr9-cLWtEceim-36" value="" style="endArrow=none;html=1;entryX=-0.007;entryY=0.605;entryDx=0;entryDy=0;entryPerimeter=0;" edge="1" parent="1" target="HuJY_5AUr9-cLWtEceim-7">
          <mxGeometry width="50" height="50" relative="1" as="geometry">
            <mxPoint x="120" y="340" as="sourcePoint" />
            <mxPoint x="480" y="440" as="targetPoint" />
          </mxGeometry>
        </mxCell>
        <mxCell id="HuJY_5AUr9-cLWtEceim-37" value="" style="endArrow=none;html=1;entryX=0;entryY=0.5;entryDx=0;entryDy=0;" edge="1" parent="1" target="HuJY_5AUr9-cLWtEceim-8">
          <mxGeometry width="50" height="50" relative="1" as="geometry">
            <mxPoint x="120" y="338.70506809555707" as="sourcePoint" />
            <mxPoint x="279.1600000000001" y="328.4" as="targetPoint" />
          </mxGeometry>
        </mxCell>
        <mxCell id="HuJY_5AUr9-cLWtEceim-38" value="" style="endArrow=none;html=1;entryX=0.043;entryY=0.28;entryDx=0;entryDy=0;entryPerimeter=0;" edge="1" parent="1" target="HuJY_5AUr9-cLWtEceim-20">
          <mxGeometry width="50" height="50" relative="1" as="geometry">
            <mxPoint x="120" y="340" as="sourcePoint" />
            <mxPoint x="340" y="471.29" as="targetPoint" />
          </mxGeometry>
        </mxCell>
        <mxCell id="HuJY_5AUr9-cLWtEceim-39" value="" style="endArrow=none;html=1;entryX=0;entryY=0.35;entryDx=0;entryDy=0;entryPerimeter=0;" edge="1" parent="1" target="HuJY_5AUr9-cLWtEceim-9">
          <mxGeometry width="50" height="50" relative="1" as="geometry">
            <mxPoint x="110" y="669.9950680955571" as="sourcePoint" />
            <mxPoint x="365.1600000000001" y="782.4000000000001" as="targetPoint" />
          </mxGeometry>
        </mxCell>
        <mxCell id="HuJY_5AUr9-cLWtEceim-40" value="&lt;font style=&quot;font-size: 18px&quot;&gt;Thống kê doanh thu&lt;/font&gt;" style="ellipse;whiteSpace=wrap;html=1;" vertex="1" parent="1">
          <mxGeometry x="230" y="590" width="120" height="80" as="geometry" />
        </mxCell>
        <mxCell id="HuJY_5AUr9-cLWtEceim-41" value="" style="endArrow=none;html=1;" edge="1" parent="1" target="HuJY_5AUr9-cLWtEceim-40">
          <mxGeometry width="50" height="50" relative="1" as="geometry">
            <mxPoint x="110" y="670" as="sourcePoint" />
            <mxPoint x="365.1600000000001" y="762.4000000000001" as="targetPoint" />
          </mxGeometry>
        </mxCell>
        <mxCell id="HuJY_5AUr9-cLWtEceim-42" value="" style="endArrow=none;html=1;" edge="1" parent="1" source="HuJY_5AUr9-cLWtEceim-34" target="HuJY_5AUr9-cLWtEceim-33">
          <mxGeometry width="50" height="50" relative="1" as="geometry">
            <mxPoint x="520" y="198.70506809555707" as="sourcePoint" />
            <mxPoint x="723" y="280" as="targetPoint" />
          </mxGeometry>
        </mxCell>
        <mxCell id="HuJY_5AUr9-cLWtEceim-44" value="&lt;span style=&quot;font-size: 18px&quot;&gt;Xuất, kiểm tra hóa đơn&lt;/span&gt;" style="ellipse;whiteSpace=wrap;html=1;" vertex="1" parent="1">
          <mxGeometry x="210" y="490" width="120" height="80" as="geometry" />
        </mxCell>
        <mxCell id="HuJY_5AUr9-cLWtEceim-45" value="" style="endArrow=none;html=1;entryX=0.273;entryY=0.075;entryDx=0;entryDy=0;entryPerimeter=0;" edge="1" parent="1" target="HuJY_5AUr9-cLWtEceim-44">
          <mxGeometry width="50" height="50" relative="1" as="geometry">
            <mxPoint x="124.84" y="338.8" as="sourcePoint" />
            <mxPoint x="390.00000000000006" y="491.2000000000001" as="targetPoint" />
          </mxGeometry>
        </mxCell>
        <mxCell id="HuJY_5AUr9-cLWtEceim-46" value="" style="endArrow=none;html=1;entryX=0.053;entryY=0.705;entryDx=0;entryDy=0;entryPerimeter=0;" edge="1" parent="1" target="HuJY_5AUr9-cLWtEceim-44">
          <mxGeometry width="50" height="50" relative="1" as="geometry">
            <mxPoint x="110" y="670" as="sourcePoint" />
            <mxPoint x="233.07900211696938" y="642.6491106406734" as="targetPoint" />
          </mxGeometry>
        </mxCell>
        <mxCell id="HuJY_5AUr9-cLWtEceim-47" value="&lt;font style=&quot;font-size: 18px&quot;&gt;CRUD&lt;br&gt;nhân viên&lt;br&gt;&lt;/font&gt;" style="ellipse;whiteSpace=wrap;html=1;" vertex="1" parent="1">
          <mxGeometry x="770" y="600" width="120" height="80" as="geometry" />
        </mxCell>
        <mxCell id="HuJY_5AUr9-cLWtEceim-48" value="&lt;span style=&quot;font-size: 18px&quot;&gt;Quản lý&lt;/span&gt;" style="shape=umlActor;verticalLabelPosition=bottom;verticalAlign=top;html=1;" vertex="1" parent="1">
          <mxGeometry x="1040" y="610" width="40" height="80" as="geometry" />
        </mxCell>
        <mxCell id="HuJY_5AUr9-cLWtEceim-53" value="" style="endArrow=none;html=1;entryX=0;entryY=0.3333333333333333;entryDx=0;entryDy=0;entryPerimeter=0;exitX=1;exitY=0.5;exitDx=0;exitDy=0;" edge="1" parent="1" source="HuJY_5AUr9-cLWtEceim-47" target="HuJY_5AUr9-cLWtEceim-48">
          <mxGeometry width="50" height="50" relative="1" as="geometry">
            <mxPoint x="630" y="789.9950680955571" as="sourcePoint" />
            <mxPoint x="790" y="848" as="targetPoint" />
          </mxGeometry>
        </mxCell>
        <mxCell id="HuJY_5AUr9-cLWtEceim-54" value="" style="endArrow=none;html=1;entryX=0;entryY=1;entryDx=0;entryDy=0;" edge="1" parent="1" target="HuJY_5AUr9-cLWtEceim-20">
          <mxGeometry width="50" height="50" relative="1" as="geometry">
            <mxPoint x="110" y="663.68" as="sourcePoint" />
            <mxPoint x="233.07900211696915" y="636.3291106406735" as="targetPoint" />
          </mxGeometry>
        </mxCell>
      </root>
    </mxGraphModel>
  </diagram>
</mxfile>
